<?xml version="1.0" encoding="utf-8"?><svg viewBox="0 0 60 30" xmlns="http://www.w3.org/2000/svg" xmlns:xlink="http://www.w3.org/1999/xlink"><style>:root>svg{display:none}:root>svg:target{display:block}</style><svg fill="none" viewBox="0 0 30 30" id="facebook" xmlns="http://www.w3.org/2000/svg"><path d="M15 0C6.716 0 0 6.716 0 15c0 8.284 6.716 15 15 15 8.284 0 15-6.716 15-15 0-8.284-6.716-15-15-15zm3.75 10h-1.688c-.672 0-.812.276-.812.973V12.5h2.5l-.261 2.5H16.25v8.75H12.5V15H10v-2.5h2.5V9.615c0-2.211 1.164-3.365 3.786-3.365h2.464V10z" fill="#282828"/></svg><svg fill="none" viewBox="0 0 30 30" id="instagram" xmlns="http://www.w3.org/2000/svg"><path d="M18.536 7.878c-.922-.043-1.2-.05-3.536-.05-2.336 0-2.613.008-3.535.05-2.374.108-3.479 1.232-3.587 3.587-.042.922-.052 1.199-.052 3.535 0 2.336.01 2.613.052 3.536.108 2.349 1.208 3.479 3.587 3.588.921.041 1.199.051 3.535.051 2.337 0 2.614-.009 3.536-.051 2.374-.108 3.478-1.235 3.588-3.588.041-.922.05-1.2.05-3.536 0-2.336-.009-2.613-.05-3.535-.11-2.354-1.216-3.479-3.588-3.587zM15 19.494a4.494 4.494 0 110-8.988 4.494 4.494 0 010 8.988zm4.671-8.114a1.05 1.05 0 110-2.1 1.05 1.05 0 010 2.1zM17.916 15a2.916 2.916 0 11-5.832 0 2.916 2.916 0 015.832 0zM15 0C6.716 0 0 6.716 0 15c0 8.284 6.716 15 15 15 8.284 0 15-6.716 15-15 0-8.284-6.716-15-15-15zm8.698 18.608c-.144 3.18-1.916 4.943-5.09 5.09-.933.042-1.232.052-3.608.052-2.376 0-2.674-.01-3.607-.052-3.18-.147-4.944-1.912-5.09-5.09-.043-.933-.053-1.232-.053-3.608 0-2.376.01-2.674.053-3.607.146-3.18 1.91-4.944 5.09-5.09.933-.043 1.23-.053 3.607-.053 2.376 0 2.675.01 3.609.054 3.181.146 4.946 1.915 5.088 5.088.043.934.053 1.232.053 3.608 0 2.376-.01 2.675-.052 3.608z" fill="#282828"/></svg><svg fill="none" viewBox="0 0 60 15" id="left-arrow" xmlns="http://www.w3.org/2000/svg"><path fill-rule="evenodd" clip-rule="evenodd" d="M2.117 7L9.644.765 9 0 0 7.521 9 15l.645-.764L2.116 8H60V7H2.117z" fill="#4A7987"/></svg><svg fill="none" viewBox="0 0 60 15" id="right-arrow" xmlns="http://www.w3.org/2000/svg"><path fill-rule="evenodd" clip-rule="evenodd" d="M57.883 8l-7.527 6.235L51 15l9-7.521L51 0l-.645.764L57.884 7H0v1h57.883z" fill="#4A7987"/></svg><svg fill="none" viewBox="0 0 24 24" id="search" xmlns="http://www.w3.org/2000/svg"><path fill-rule="evenodd" clip-rule="evenodd" d="M15.853 16.56A9.458 9.458 0 019.5 19C4.257 19 0 14.743 0 9.5S4.257 0 9.5 0 19 4.257 19 9.5c0 2.442-.923 4.67-2.44 6.353l7.44 7.44-.707.707-7.44-7.44zM9.5 1C14.191 1 18 4.809 18 9.5S14.191 18 9.5 18 1 14.191 1 9.5 4.809 1 9.5 1z" fill="#282828"/></svg><svg fill="none" viewBox="0 0 30 30" id="twitter" xmlns="http://www.w3.org/2000/svg"><path d="M15 0C6.716 0 0 6.716 0 15c0 8.284 6.716 15 15 15 8.284 0 15-6.716 15-15 0-8.284-6.716-15-15-15zm7.582 12.056c.23 5.05-3.537 10.68-10.205 10.68-2.027 0-3.913-.595-5.502-1.614a7.223 7.223 0 005.315-1.486 3.598 3.598 0 01-3.355-2.494 3.6 3.6 0 001.622-.06c-1.726-.348-2.918-1.903-2.88-3.567a3.58 3.58 0 001.627.449A3.596 3.596 0 018.092 9.17a10.19 10.19 0 007.4 3.751c-.523-2.245 1.18-4.409 3.5-4.409 1.03 0 1.964.437 2.62 1.134a7.162 7.162 0 002.28-.871 3.606 3.606 0 01-1.58 1.986 7.168 7.168 0 002.062-.566 7.208 7.208 0 01-1.791 1.861z" fill="#282828"/></svg></svg>