<svg xmlns="http://www.w3.org/2000/svg" xmlns:xlink="http://www.w3.org/1999/xlink"><style>:root&gt;svg{display:none}:root&gt;svg:target{display:block}</style><svg id="star-light-beige" viewBox="0 0 174 175" fill="none" xmlns="http://www.w3.org/2000/svg"><path d="M162.222 98.863l-52.646-2.757 41.422 32.61-46.973-23.932 24.577 46.639-33.178-40.969 3.483 52.603-13.646-50.922-18.214 49.472 8.246-52.07-36.762 37.787 28.711-44.214-48.952 19.567 44.212-28.713-52.679-2.035 52.07-8.249-47.298-23.285 50.923 13.643-33.737-40.51 40.97 33.176-14.343-50.73 23.935 46.972 7.53-52.178 2.761 52.646 28.102-44.604-18.891 49.218 43.814-29.318-37.276 37.278 51.951-8.962-49.217 18.894 51.105 12.943z" fill="#F0E8DF"/></svg><svg id="star-light-blue" viewBox="0 0 174 175" fill="none" xmlns="http://www.w3.org/2000/svg"><path d="M162.222 98.863l-52.646-2.757 41.422 32.61-46.973-23.932 24.577 46.639-33.178-40.969 3.483 52.603-13.646-50.922-18.214 49.472 8.246-52.07-36.762 37.787 28.711-44.214-48.952 19.567 44.212-28.713-52.679-2.035 52.07-8.249-47.298-23.285 50.923 13.643-33.737-40.51 40.97 33.176-14.343-50.73 23.935 46.972 7.53-52.178 2.761 52.646 28.102-44.604-18.891 49.218 43.814-29.318-37.276 37.278 51.951-8.962-49.217 18.894 51.105 12.943z" fill="#B5CFD3"/></svg><svg id="ellipse-light-beige" viewBox="0 0 498 399" fill="none" xmlns="http://www.w3.org/2000/svg"><path d="M450.519 76.864c6.31 10.412 6.781 23.757 2.123 39.044-4.657 15.287-14.428 32.46-28.507 50.454-28.157 35.983-73.477 75.16-129.292 108.982-55.816 33.822-111.521 55.861-156.45 64.164-22.467 4.152-42.212 4.865-57.919 1.917-15.707-2.947-27.318-9.541-33.628-19.954-6.309-10.412-6.78-23.757-2.122-39.044 4.657-15.288 14.428-32.461 28.507-50.454 28.157-35.983 73.477-75.161 129.292-108.982 55.816-33.822 111.521-55.861 156.45-64.165 22.467-4.151 42.212-4.864 57.919-1.916 15.707 2.947 27.318 9.541 33.627 19.954z" stroke="#F0E8DF"/></svg><svg id="experts-columns-ellipse" viewBox="0 0 547 313" fill="none" xmlns="http://www.w3.org/2000/svg"><path d="M522.422 94.712c3.183 12.874-.657 26.898-10.451 41.271-9.793 14.373-25.509 29.046-45.962 43.173-40.903 28.251-100.666 54.257-169.591 71.3-68.926 17.042-133.922 21.885-183.278 15.951-24.68-2.966-45.422-8.624-60.785-16.777s-25.297-18.771-28.48-31.645c-3.183-12.874.657-26.898 10.45-41.271 9.794-14.373 25.51-29.046 45.962-43.172 40.904-28.252 100.666-54.258 169.592-71.3C318.805 45.199 383.8 40.356 433.156 46.29c24.68 2.967 45.422 8.624 60.785 16.777 15.364 8.153 25.298 18.771 28.481 31.645z" stroke="#F0E8DF"/></svg></svg>