<svg xmlns="http://www.w3.org/2000/svg" xmlns:xlink="http://www.w3.org/1999/xlink">
  <style>
    :root>svg {
      display: none
    }

    :root>svg:target {
      display: block
    }
  </style>
  <svg id="star-light-beige" viewBox="0 0 174 175" fill="none" xmlns="http://www.w3.org/2000/svg">
    <path
      d="M162.222 98.8633L109.576 96.1056L150.998 128.716L104.025 104.784L128.602 151.423L95.4243 110.454L98.9069 163.057L85.261 112.135L67.0469 161.607L75.2925 109.537L38.531 147.324L67.2423 103.11L18.2899 122.677L62.5024 93.9637L9.82333 91.9287L61.8924 83.6803L14.5954 60.3948L65.5178 74.0379L31.7809 33.528L72.7517 66.7037L58.4083 15.974L82.3432 62.9458L89.8735 10.768L92.634 63.4141L120.736 18.8101L101.845 68.0275L145.659 38.7098L108.383 75.9884L160.334 67.0263L111.117 85.9202L162.222 98.8633Z"
      fill="#F0E8DF" />
  </svg>
  <svg id="star-light-blue" viewBox="0 0 174 175" fill="none" xmlns="http://www.w3.org/2000/svg">
    <path
      d="M162.222 98.8633L109.576 96.1056L150.998 128.716L104.025 104.784L128.602 151.423L95.4243 110.454L98.9069 163.057L85.261 112.135L67.0469 161.607L75.2925 109.537L38.531 147.324L67.2423 103.11L18.2899 122.677L62.5024 93.9637L9.82333 91.9287L61.8924 83.6803L14.5954 60.3948L65.5178 74.0379L31.7809 33.528L72.7517 66.7037L58.4083 15.974L82.3432 62.9458L89.8735 10.768L92.634 63.4141L120.736 18.8101L101.845 68.0275L145.659 38.7098L108.383 75.9884L160.334 67.0263L111.117 85.9202L162.222 98.8633Z"
      fill="#B5CFD3" />
  </svg>
  <svg id="ellipse-light-beige" viewBox="0 0 498 399" fill="none" xmlns="http://www.w3.org/2000/svg">
<path d="M450.519 76.8635C456.829 87.2758 457.3 100.621 452.642 115.908C447.985 131.195 438.214 148.368 424.135 166.362C395.978 202.345 350.658 241.522 294.843 275.344C239.027 309.166 183.322 331.205 138.393 339.508C115.926 343.66 96.1811 344.373 80.4743 341.425C64.767 338.478 53.1559 331.884 46.8465 321.471C40.537 311.059 40.0662 297.714 44.7237 282.427C49.3811 267.139 59.1519 249.966 73.2313 231.973C101.388 195.99 146.708 156.812 202.523 122.991C258.339 89.1689 314.044 67.1298 358.973 58.8264C381.44 54.6745 401.185 53.9621 416.892 56.9095C432.599 59.8571 444.21 66.4512 450.519 76.8635Z" stroke="#F0E8DF"/>
</svg>
<svg id="experts-columns-ellipse" viewBox="0 0 547 313" fill="none" xmlns="http://www.w3.org/2000/svg">
<path d="M522.422 94.7121C525.605 107.586 521.765 121.61 511.971 135.983C502.178 150.356 486.462 165.029 466.009 179.156C425.106 207.407 365.343 233.413 296.418 250.456C227.492 267.498 162.496 272.341 113.14 266.407C88.4605 263.441 67.7184 257.783 52.3552 249.63C36.9915 241.477 27.0579 230.859 23.8747 217.985C20.6915 205.111 24.532 191.087 34.3256 176.714C44.119 162.341 59.8341 147.668 80.2874 133.542C121.191 105.29 180.953 79.2845 249.879 62.2416C318.805 45.1987 383.8 40.3564 433.156 46.2897C457.836 49.2565 478.578 54.9144 493.941 63.0673C509.305 71.2203 519.239 81.8384 522.422 94.7121Z" stroke="#F0E8DF"/>
</svg>
</svg>